<svg xmlns="http://www.w3.org/2000/svg" xmlns:xlink="http://www.w3.org/1999/xlink" width="500" zoomAndPan="magnify" viewBox="0 0 375 374.999991" height="500" preserveAspectRatio="xMidYMid meet" version="1.0"><defs><g/><clipPath id="id1"><path d="M 95.992188 88.167969 L 278.992188 88.167969 L 278.992188 154.167969 L 95.992188 154.167969 Z M 95.992188 88.167969 " clip-rule="nonzero"/></clipPath><clipPath id="id2"><path d="M 95.992188 211.875 L 278.992188 211.875 L 278.992188 277.6875 L 95.992188 277.6875 Z M 95.992188 211.875 " clip-rule="nonzero"/></clipPath><clipPath id="id3"><path d="M 220.78125 181.050781 L 296.53125 181.050781 L 296.53125 196 L 220.78125 196 Z M 220.78125 181.050781 " clip-rule="nonzero"/></clipPath><clipPath id="id4"><path d="M 71.800781 181.050781 L 152.050781 181.050781 L 152.050781 196 L 71.800781 196 Z M 71.800781 181.050781 " clip-rule="nonzero"/></clipPath></defs><rect x="-37.5" width="450" fill="#000000" y="-37.499999" height="449.999989" fill-opacity="1"/><rect x="-37.5" width="450" fill="#ffffff" y="-37.499999" height="449.999989" fill-opacity="1"/><rect x="-37.5" width="450" fill="#000000" y="-37.499999" height="449.999989" fill-opacity="1"/><g fill="#75e6da" fill-opacity="1"><g transform="translate(136.860317, 205.302819)"><g><path d="M 21.867188 0.894531 C 34.722656 0.894531 41.1875 -5.15625 41.1875 -16.777344 L 41.1875 -29.292969 C 41.1875 -39.46875 42.355469 -45.585938 43.800781 -47.308594 L 43.800781 -48.132812 L 36.855469 -48.132812 L 36.855469 -47.308594 C 38.300781 -45.585938 39.46875 -39.46875 39.46875 -29.292969 L 39.46875 -16.847656 C 39.46875 -7.90625 34.585938 -2.820312 27.984375 -2.820312 C 21.382812 -2.820312 16.847656 -7.90625 16.847656 -17.191406 L 16.847656 -29.292969 C 16.847656 -39.46875 17.945312 -45.585938 19.460938 -47.308594 L 19.460938 -48.132812 L 1.238281 -48.132812 L 1.238281 -47.308594 C 2.679688 -45.585938 3.851562 -39.46875 3.851562 -29.292969 L 3.851562 -17.191406 C 3.851562 -6.945312 10.796875 0.894531 21.867188 0.894531 Z M 21.867188 0.894531 "/></g></g></g><g fill="#75e6da" fill-opacity="1"><g transform="translate(181.894154, 205.302819)"><g><path d="M 41.53125 0.894531 C 51.640625 0.894531 55.488281 -7.976562 55.488281 -14.714844 C 55.488281 -21.867188 51.226562 -25.992188 46.34375 -25.992188 C 41.875 -25.992188 38.710938 -22.828125 38.710938 -19.183594 C 38.710938 -16.296875 40.5 -14.234375 42.355469 -14.027344 L 42.976562 -14.441406 C 41.667969 -17.464844 44.074219 -21.246094 47.789062 -21.246094 C 51.363281 -21.246094 53.5625 -18.425781 53.5625 -14.785156 C 53.5625 -10.519531 50.46875 -7.011719 46.070312 -7.011719 C 34.105469 -7.011719 34.171875 -28.535156 24.824219 -31.421875 L 24.824219 -31.972656 C 27.917969 -35.894531 33.074219 -43.523438 39.054688 -43.523438 C 42.425781 -43.523438 44.96875 -41.460938 44.96875 -38.160156 C 44.96875 -35.34375 43.320312 -33.003906 40.570312 -33.003906 C 38.300781 -33.003906 36.304688 -35.207031 36.992188 -37.269531 L 36.03125 -37.269531 C 34.859375 -33.417969 37.75 -28.605469 43.320312 -28.605469 C 48.75 -28.605469 52.464844 -33.074219 52.464844 -38.4375 C 52.464844 -44.96875 48.40625 -49.027344 41.738281 -49.027344 C 32.25 -49.027344 26.335938 -37.128906 23.859375 -33.074219 C 23.378906 -33.347656 22.621094 -33.484375 22.070312 -33.484375 C 19.804688 -33.484375 18.703125 -32.316406 18.703125 -30.667969 C 18.703125 -29.152344 19.871094 -27.917969 21.796875 -27.917969 C 22.691406 -27.917969 23.996094 -28.605469 24.546875 -29.84375 L 25.304688 -29.636719 C 25.855469 -27.089844 24.132812 -21.933594 24.960938 -15.402344 C 25.992188 -8.113281 30.324219 0.894531 41.53125 0.894531 Z M 1.582031 0 L 19.734375 0 L 19.734375 -0.824219 C 18.289062 -2.542969 17.191406 -8.734375 17.191406 -18.839844 L 17.191406 -29.292969 C 17.191406 -39.46875 18.289062 -45.585938 19.734375 -47.308594 L 19.734375 -48.132812 L 1.582031 -48.132812 L 1.582031 -47.308594 C 3.027344 -45.585938 4.195312 -39.46875 4.195312 -29.292969 L 4.195312 -18.839844 C 4.195312 -8.734375 3.027344 -2.542969 1.582031 -0.824219 Z M 1.582031 0 "/></g></g></g><g clip-path="url(#id1)"><path fill="#75e6da" d="M 187.492188 88.1875 C 214.140625 88.1875 238.261719 99.019531 255.722656 116.53125 C 266.148438 126.984375 274.199219 139.820312 278.992188 154.15625 L 277.585938 154.15625 C 272.839844 140.191406 264.960938 127.683594 254.78125 117.476562 C 237.5625 100.207031 213.769531 89.523438 187.492188 89.523438 C 161.214844 89.523438 137.421875 100.207031 120.203125 117.476562 C 110.027344 127.683594 102.144531 140.191406 97.398438 154.15625 L 95.992188 154.15625 C 100.789062 139.824219 108.839844 126.988281 119.261719 116.53125 C 136.722656 99.019531 160.847656 88.1875 187.492188 88.1875 Z M 187.492188 88.1875 " fill-opacity="1" fill-rule="evenodd"/></g><g clip-path="url(#id2)"><path fill="#75e6da" d="M 187.492188 277.667969 C 214.140625 277.667969 238.261719 266.835938 255.722656 249.324219 C 266.148438 238.871094 274.199219 226.035156 278.992188 211.699219 L 277.585938 211.699219 C 272.839844 225.664062 264.960938 238.171875 254.78125 248.378906 C 237.5625 265.648438 213.769531 276.332031 187.492188 276.332031 C 161.214844 276.332031 137.421875 265.648438 120.203125 248.378906 C 110.027344 238.171875 102.144531 225.664062 97.398438 211.699219 L 95.992188 211.699219 C 100.789062 226.03125 108.839844 238.867188 119.261719 249.324219 C 136.722656 266.835938 160.847656 277.667969 187.492188 277.667969 Z M 187.492188 277.667969 " fill-opacity="1" fill-rule="evenodd"/></g><g clip-path="url(#id3)"><path fill="#75e6da" d="M 217.816406 187.941406 C 219.035156 186.417969 221.476562 184.394531 224.28125 183.074219 C 227.085938 181.75 230.265625 181.140625 233.835938 181.175781 C 237.40625 181.207031 241.363281 181.886719 246.195312 183.375 C 251.027344 184.863281 256.730469 187.164062 261.824219 189.089844 C 266.921875 191.011719 271.421875 192.566406 275.710938 193.113281 C 280.003906 193.65625 284.097656 193.179688 287.199219 191.941406 C 290.296875 190.695312 292.40625 188.6875 293.648438 187.1875 C 294.894531 185.691406 295.277344 184.710938 295.699219 183.882812 C 296.117188 183.054688 296.570312 182.378906 296.761719 182.429688 C 296.953125 182.480469 296.886719 183.257812 296.554688 184.34375 C 296.222656 185.433594 295.625 186.835938 294.058594 188.585938 C 292.488281 190.335938 289.929688 192.433594 287.316406 193.816406 C 284.703125 195.203125 282.011719 195.882812 278.328125 195.914062 C 274.632812 195.949219 269.945312 195.335938 265.210938 194.058594 C 260.480469 192.769531 255.714844 190.8125 250.984375 188.785156 C 246.253906 186.761719 241.554688 184.664062 237.015625 183.835938 C 232.464844 183.007812 228.074219 183.449219 224.730469 184.8125 C 221.386719 186.175781 219.09375 188.476562 217.90625 189.742188 C 216.726562 191.011719 216.664062 191.246094 216.628906 190.863281 C 216.597656 190.476562 216.597656 189.464844 217.816406 187.941406 Z M 217.816406 187.941406 " fill-opacity="1" fill-rule="evenodd"/></g><g fill="#75e6da" fill-opacity="1"><g transform="translate(144.002297, 127.274389)"><g><path d="M 0.796875 -0.546875 L -3.59375 -6.84375 L 0.53125 -9.734375 L 0.921875 -9.1875 L -2.59375 -6.734375 L -0.984375 -4.421875 L 1.984375 -6.484375 L 2.34375 -5.96875 L -0.625 -3.90625 L 1.40625 -0.984375 Z M 0.796875 -0.546875 "/></g></g></g><g fill="#75e6da" fill-opacity="1"><g transform="translate(152.434319, 121.700596)"><g><path d="M 0.859375 -0.4375 L -2.5625 -7.296875 L 0.34375 -8.734375 C 0.632812 -8.878906 0.9375 -8.953125 1.25 -8.953125 C 1.5625 -8.953125 1.859375 -8.894531 2.140625 -8.78125 C 2.421875 -8.675781 2.675781 -8.519531 2.90625 -8.3125 C 3.132812 -8.101562 3.316406 -7.867188 3.453125 -7.609375 C 3.578125 -7.347656 3.660156 -7.085938 3.703125 -6.828125 C 3.742188 -6.566406 3.738281 -6.304688 3.6875 -6.046875 C 3.644531 -5.796875 3.5625 -5.5625 3.4375 -5.34375 C 3.3125 -5.125 3.144531 -4.9375 2.9375 -4.78125 L 5.953125 -2.96875 L 5.1875 -2.59375 L 2.296875 -4.3125 L 0.265625 -3.296875 L 1.53125 -0.765625 Z M -0.03125 -3.890625 L 2.234375 -5.015625 C 2.421875 -5.109375 2.578125 -5.238281 2.703125 -5.40625 C 2.828125 -5.582031 2.90625 -5.773438 2.9375 -5.984375 C 2.976562 -6.191406 2.984375 -6.40625 2.953125 -6.625 C 2.929688 -6.84375 2.875 -7.054688 2.78125 -7.265625 C 2.675781 -7.460938 2.535156 -7.640625 2.359375 -7.796875 C 2.191406 -7.953125 2.007812 -8.066406 1.8125 -8.140625 C 1.613281 -8.222656 1.40625 -8.265625 1.1875 -8.265625 C 0.976562 -8.265625 0.78125 -8.21875 0.59375 -8.125 L -1.59375 -7.03125 Z M -0.03125 -3.890625 "/></g></g></g><g fill="#75e6da" fill-opacity="1"><g transform="translate(162.168936, 117.125852)"><g><path d="M 3.890625 -1.171875 C 3.367188 -1.003906 2.863281 -0.957031 2.375 -1.03125 C 1.882812 -1.113281 1.429688 -1.28125 1.015625 -1.53125 C 0.609375 -1.789062 0.253906 -2.117188 -0.046875 -2.515625 C -0.347656 -2.910156 -0.570312 -3.34375 -0.71875 -3.8125 C -0.875 -4.289062 -0.9375 -4.78125 -0.90625 -5.28125 C -0.875 -5.78125 -0.753906 -6.25 -0.546875 -6.6875 C -0.335938 -7.132812 -0.0625 -7.523438 0.28125 -7.859375 C 0.632812 -8.191406 1.054688 -8.4375 1.546875 -8.59375 C 2.054688 -8.75 2.5625 -8.785156 3.0625 -8.703125 C 3.5625 -8.617188 4.015625 -8.445312 4.421875 -8.1875 C 4.828125 -7.9375 5.179688 -7.613281 5.484375 -7.21875 C 5.785156 -6.832031 6.003906 -6.410156 6.140625 -5.953125 C 6.296875 -5.460938 6.359375 -4.96875 6.328125 -4.46875 C 6.296875 -3.96875 6.179688 -3.492188 5.984375 -3.046875 C 5.785156 -2.609375 5.507812 -2.222656 5.15625 -1.890625 C 4.800781 -1.566406 4.378906 -1.328125 3.890625 -1.171875 Z M 0 -4.03125 C 0.125 -3.632812 0.3125 -3.269531 0.5625 -2.9375 C 0.8125 -2.601562 1.097656 -2.332031 1.421875 -2.125 C 1.753906 -1.925781 2.113281 -1.789062 2.5 -1.71875 C 2.882812 -1.65625 3.28125 -1.6875 3.6875 -1.8125 C 4.09375 -1.9375 4.4375 -2.140625 4.71875 -2.421875 C 5 -2.710938 5.210938 -3.039062 5.359375 -3.40625 C 5.503906 -3.769531 5.582031 -4.148438 5.59375 -4.546875 C 5.601562 -4.953125 5.546875 -5.347656 5.421875 -5.734375 C 5.296875 -6.128906 5.109375 -6.488281 4.859375 -6.8125 C 4.617188 -7.144531 4.332031 -7.414062 4 -7.625 C 3.664062 -7.832031 3.304688 -7.960938 2.921875 -8.015625 C 2.546875 -8.078125 2.160156 -8.046875 1.765625 -7.921875 C 1.347656 -7.785156 0.992188 -7.578125 0.703125 -7.296875 C 0.421875 -7.023438 0.207031 -6.707031 0.0625 -6.34375 C -0.0703125 -5.988281 -0.144531 -5.609375 -0.15625 -5.203125 C -0.164062 -4.796875 -0.113281 -4.40625 0 -4.03125 Z M 0 -4.03125 "/></g></g></g><g fill="#75e6da" fill-opacity="1"><g transform="translate(173.491618, 113.873657)"><g><path d="M 0.84375 -6.4375 L 1.703125 -0.234375 L 0.953125 -0.140625 L -0.109375 -7.734375 L 0.46875 -7.8125 L 6.390625 -2.1875 L 5.5 -8.515625 L 6.25 -8.609375 L 7.3125 -1.015625 L 6.65625 -0.921875 Z M 0.84375 -6.4375 "/></g></g></g><g fill="#75e6da" fill-opacity="1"><g transform="translate(185.461754, 112.566)"><g><path d="M 6.53125 -6.890625 L 3.796875 -6.9375 L 3.671875 0.0625 L 2.921875 0.046875 L 3.046875 -6.953125 L 0.3125 -7 L 0.328125 -7.671875 L 6.546875 -7.5625 Z M 6.53125 -6.890625 "/></g></g></g><g fill="#75e6da" fill-opacity="1"><g transform="translate(195.838735, 113.064463)"><g><path d="M 1.09375 -2.46875 L 1.1875 -3.140625 L 4.296875 -2.671875 L 4.203125 -2 Z M 1.09375 -2.46875 "/></g></g></g><g fill="#75e6da" fill-opacity="1"><g transform="translate(204.081053, 114.485171)"><g><path d="M 6.078125 1.046875 L 5.890625 1.6875 L 0.9375 0.265625 L 3.0625 -7.109375 L 7.90625 -5.71875 L 7.71875 -5.078125 L 3.59375 -6.265625 L 2.828125 -3.59375 L 6.421875 -2.546875 L 6.25 -1.9375 L 2.65625 -2.984375 L 1.84375 -0.171875 Z M 6.078125 1.046875 "/></g></g></g><g fill="#75e6da" fill-opacity="1"><g transform="translate(213.905727, 117.53866)"><g><path d="M 4.203125 -4.953125 L 1.5625 0.71875 L 0.875 0.40625 L 4.109375 -6.546875 L 4.640625 -6.296875 L 6.546875 1.640625 L 9.234375 -4.15625 L 9.9375 -3.828125 L 6.703125 3.125 L 6.09375 2.84375 Z M 4.203125 -4.953125 "/></g></g></g><g fill="#75e6da" fill-opacity="1"><g transform="translate(224.656018, 122.903674)"><g><path d="M 0.796875 0.546875 L 5.125 -5.78125 L 7.265625 -4.3125 C 7.773438 -3.96875 8.164062 -3.582031 8.4375 -3.15625 C 8.707031 -2.738281 8.867188 -2.300781 8.921875 -1.84375 C 8.972656 -1.382812 8.929688 -0.914062 8.796875 -0.4375 C 8.671875 0.03125 8.457031 0.484375 8.15625 0.921875 C 7.820312 1.398438 7.445312 1.78125 7.03125 2.0625 C 6.625 2.351562 6.195312 2.546875 5.75 2.640625 C 5.300781 2.742188 4.835938 2.742188 4.359375 2.640625 C 3.878906 2.535156 3.40625 2.328125 2.9375 2.015625 Z M 7.53125 0.484375 C 7.789062 0.0976562 7.972656 -0.285156 8.078125 -0.671875 C 8.191406 -1.066406 8.222656 -1.445312 8.171875 -1.8125 C 8.128906 -2.1875 8 -2.539062 7.78125 -2.875 C 7.570312 -3.207031 7.273438 -3.503906 6.890625 -3.765625 L 5.375 -4.8125 L 1.796875 0.421875 L 3.3125 1.46875 C 3.707031 1.738281 4.101562 1.90625 4.5 1.96875 C 4.894531 2.039062 5.273438 2.03125 5.640625 1.9375 C 6.003906 1.84375 6.347656 1.664062 6.671875 1.40625 C 6.992188 1.15625 7.28125 0.847656 7.53125 0.484375 Z M 7.53125 0.484375 "/></g></g></g><g fill="#75e6da" fill-opacity="1"><g transform="translate(140.013443, 249.264326)"><g><path d="M 0.796875 0.546875 L 5.09375 -5.8125 L 7.25 -4.359375 C 7.757812 -4.015625 8.148438 -3.628906 8.421875 -3.203125 C 8.691406 -2.785156 8.851562 -2.347656 8.90625 -1.890625 C 8.957031 -1.429688 8.914062 -0.960938 8.78125 -0.484375 C 8.65625 -0.015625 8.445312 0.4375 8.15625 0.875 C 7.832031 1.363281 7.460938 1.75 7.046875 2.03125 C 6.640625 2.320312 6.210938 2.519531 5.765625 2.625 C 5.316406 2.726562 4.851562 2.726562 4.375 2.625 C 3.894531 2.519531 3.421875 2.3125 2.953125 2 Z M 7.53125 0.453125 C 7.789062 0.0664062 7.972656 -0.316406 8.078125 -0.703125 C 8.191406 -1.097656 8.222656 -1.484375 8.171875 -1.859375 C 8.128906 -2.234375 8 -2.582031 7.78125 -2.90625 C 7.5625 -3.238281 7.257812 -3.535156 6.875 -3.796875 L 5.34375 -4.828125 L 1.796875 0.40625 L 3.328125 1.4375 C 3.722656 1.707031 4.113281 1.878906 4.5 1.953125 C 4.894531 2.023438 5.273438 2.007812 5.640625 1.90625 C 6.003906 1.800781 6.347656 1.625 6.671875 1.375 C 6.992188 1.132812 7.28125 0.828125 7.53125 0.453125 Z M 7.53125 0.453125 "/></g></g></g><g fill="#75e6da" fill-opacity="1"><g transform="translate(150.726325, 256.011974)"><g><path d="M 5.8125 2.015625 L 5.53125 2.625 L 0.875 0.421875 L 4.15625 -6.515625 L 8.71875 -4.359375 L 8.4375 -3.75 L 4.546875 -5.59375 L 3.359375 -3.09375 L 6.75 -1.484375 L 6.484375 -0.90625 L 3.09375 -2.515625 L 1.828125 0.125 Z M 5.8125 2.015625 "/></g></g></g><g fill="#75e6da" fill-opacity="1"><g transform="translate(161.264693, 260.63586)"><g><path d="M 3.109375 -7.078125 L 3.78125 0.171875 L 8.34375 -5.484375 L 9.109375 -5.265625 L 3.828125 1.15625 L 3.203125 0.96875 L 2.359375 -7.296875 Z M 3.109375 -7.078125 "/></g></g></g><g fill="#75e6da" fill-opacity="1"><g transform="translate(173.110085, 263.804742)"><g><path d="M 6.15625 0.203125 L 6.0625 0.875 L 0.953125 0.140625 L 2.0625 -7.453125 L 7.0625 -6.734375 L 6.953125 -6.0625 L 2.703125 -6.671875 L 2.3125 -3.9375 L 6.015625 -3.40625 L 5.921875 -2.78125 L 2.21875 -3.3125 L 1.796875 -0.421875 Z M 6.15625 0.203125 "/></g></g></g><g fill="#75e6da" fill-opacity="1"><g transform="translate(184.515236, 265.098249)"><g><path d="M 0.96875 0 L 0.984375 -7.671875 L 1.734375 -7.671875 L 1.71875 -0.671875 L 6.15625 -0.65625 L 6.15625 0.015625 Z M 0.96875 0 "/></g></g></g><g fill="#75e6da" fill-opacity="1"><g transform="translate(195.754737, 264.808743)"><g><path d="M 4.015625 -0.5625 C 3.484375 -0.476562 2.984375 -0.515625 2.515625 -0.671875 C 2.046875 -0.828125 1.625 -1.054688 1.25 -1.359375 C 0.882812 -1.671875 0.582031 -2.046875 0.34375 -2.484375 C 0.101562 -2.921875 -0.0507812 -3.378906 -0.125 -3.859375 C -0.195312 -4.367188 -0.179688 -4.867188 -0.078125 -5.359375 C 0.0234375 -5.859375 0.210938 -6.304688 0.484375 -6.703125 C 0.765625 -7.109375 1.101562 -7.445312 1.5 -7.71875 C 1.90625 -8 2.359375 -8.175781 2.859375 -8.25 C 3.378906 -8.332031 3.875 -8.296875 4.34375 -8.140625 C 4.820312 -7.984375 5.242188 -7.75 5.609375 -7.4375 C 5.984375 -7.125 6.285156 -6.75 6.515625 -6.3125 C 6.753906 -5.875 6.910156 -5.414062 6.984375 -4.9375 C 7.066406 -4.4375 7.050781 -3.9375 6.9375 -3.4375 C 6.832031 -2.945312 6.644531 -2.5 6.375 -2.09375 C 6.113281 -1.695312 5.78125 -1.363281 5.375 -1.09375 C 4.96875 -0.820312 4.515625 -0.644531 4.015625 -0.5625 Z M 0.625 -3.984375 C 0.6875 -3.578125 0.8125 -3.191406 1 -2.828125 C 1.195312 -2.460938 1.441406 -2.148438 1.734375 -1.890625 C 2.023438 -1.628906 2.359375 -1.4375 2.734375 -1.3125 C 3.109375 -1.195312 3.503906 -1.171875 3.921875 -1.234375 C 4.347656 -1.296875 4.722656 -1.445312 5.046875 -1.6875 C 5.367188 -1.925781 5.625 -2.210938 5.8125 -2.546875 C 6.007812 -2.878906 6.144531 -3.242188 6.21875 -3.640625 C 6.289062 -4.046875 6.296875 -4.441406 6.234375 -4.828125 C 6.171875 -5.242188 6.039062 -5.628906 5.84375 -5.984375 C 5.65625 -6.347656 5.410156 -6.65625 5.109375 -6.90625 C 4.816406 -7.164062 4.488281 -7.351562 4.125 -7.46875 C 3.757812 -7.59375 3.367188 -7.625 2.953125 -7.5625 C 2.523438 -7.5 2.148438 -7.347656 1.828125 -7.109375 C 1.503906 -6.878906 1.242188 -6.597656 1.046875 -6.265625 C 0.847656 -5.929688 0.710938 -5.566406 0.640625 -5.171875 C 0.566406 -4.773438 0.5625 -4.378906 0.625 -3.984375 Z M 0.625 -3.984375 "/></g></g></g><g fill="#75e6da" fill-opacity="1"><g transform="translate(208.596049, 262.409906)"><g><path d="M 0.921875 -0.296875 L -1.390625 -7.609375 L 1.640625 -8.5625 C 1.953125 -8.664062 2.257812 -8.691406 2.5625 -8.640625 C 2.875 -8.585938 3.160156 -8.484375 3.421875 -8.328125 C 3.679688 -8.171875 3.910156 -7.972656 4.109375 -7.734375 C 4.304688 -7.492188 4.445312 -7.234375 4.53125 -6.953125 C 4.625 -6.660156 4.660156 -6.359375 4.640625 -6.046875 C 4.628906 -5.734375 4.566406 -5.441406 4.453125 -5.171875 C 4.335938 -4.898438 4.171875 -4.65625 3.953125 -4.4375 C 3.734375 -4.226562 3.460938 -4.070312 3.140625 -3.96875 L 0.78125 -3.21875 L 1.640625 -0.515625 Z M 0.578125 -3.859375 L 2.921875 -4.609375 C 3.140625 -4.671875 3.320312 -4.773438 3.46875 -4.921875 C 3.613281 -5.078125 3.722656 -5.25 3.796875 -5.4375 C 3.867188 -5.625 3.90625 -5.832031 3.90625 -6.0625 C 3.914062 -6.289062 3.882812 -6.515625 3.8125 -6.734375 C 3.738281 -6.960938 3.628906 -7.164062 3.484375 -7.34375 C 3.347656 -7.519531 3.1875 -7.660156 3 -7.765625 C 2.820312 -7.878906 2.628906 -7.945312 2.421875 -7.96875 C 2.210938 -7.988281 2.007812 -7.96875 1.8125 -7.90625 L -0.46875 -7.1875 Z M 0.578125 -3.859375 "/></g></g></g><g fill="#75e6da" fill-opacity="1"><g transform="translate(219.569562, 258.556536)"><g><path d="M 5.21875 -3.28125 L 5.515625 -2.671875 L 0.875 -0.421875 L -2.46875 -7.328125 L 2.0625 -9.53125 L 2.34375 -8.921875 L -1.515625 -7.046875 L -0.296875 -4.5625 L 3.078125 -6.203125 L 3.359375 -5.625 L -0.015625 -3.984375 L 1.25 -1.359375 Z M 5.21875 -3.28125 "/></g></g></g><g fill="#75e6da" fill-opacity="1"><g transform="translate(229.760077, 253.227372)"><g><path d="M 0.796875 -0.546875 L -3.53125 -6.875 L -0.859375 -8.703125 C -0.578125 -8.890625 -0.285156 -9.003906 0.015625 -9.046875 C 0.316406 -9.085938 0.613281 -9.070312 0.90625 -9 C 1.195312 -8.9375 1.472656 -8.8125 1.734375 -8.625 C 2.003906 -8.445312 2.222656 -8.238281 2.390625 -8 C 2.546875 -7.769531 2.660156 -7.523438 2.734375 -7.265625 C 2.804688 -7.003906 2.835938 -6.742188 2.828125 -6.484375 C 2.816406 -6.234375 2.765625 -5.988281 2.671875 -5.75 C 2.585938 -5.519531 2.453125 -5.316406 2.265625 -5.140625 L 5.5 -3.75 L 4.78125 -3.265625 L 1.703125 -4.578125 L -0.171875 -3.296875 L 1.421875 -0.96875 Z M -0.546875 -3.859375 L 1.53125 -5.28125 C 1.707031 -5.40625 1.84375 -5.5625 1.9375 -5.75 C 2.03125 -5.9375 2.082031 -6.132812 2.09375 -6.34375 C 2.113281 -6.550781 2.09375 -6.757812 2.03125 -6.96875 C 1.96875 -7.1875 1.875 -7.390625 1.75 -7.578125 C 1.613281 -7.765625 1.453125 -7.921875 1.265625 -8.046875 C 1.078125 -8.171875 0.878906 -8.257812 0.671875 -8.3125 C 0.472656 -8.363281 0.265625 -8.375 0.046875 -8.34375 C -0.160156 -8.3125 -0.347656 -8.238281 -0.515625 -8.125 L -2.53125 -6.75 Z M -0.546875 -3.859375 "/></g></g></g><g clip-path="url(#id4)"><path fill="#75e6da" d="M 72.996094 187.941406 C 74.214844 186.417969 76.65625 184.394531 79.460938 183.074219 C 82.265625 181.75 85.445312 181.140625 89.015625 181.175781 C 92.585938 181.207031 96.542969 181.886719 101.375 183.375 C 106.207031 184.863281 111.910156 187.164062 117.003906 189.089844 C 122.101562 191.011719 126.601562 192.566406 130.890625 193.113281 C 135.183594 193.65625 139.273438 193.179688 142.378906 191.941406 C 145.476562 190.695312 147.585938 188.6875 148.828125 187.1875 C 150.074219 185.691406 150.457031 184.710938 150.878906 183.882812 C 151.292969 183.054688 151.75 182.378906 151.941406 182.429688 C 152.132812 182.480469 152.066406 183.257812 151.734375 184.34375 C 151.402344 185.433594 150.804688 186.835938 149.234375 188.585938 C 147.667969 190.335938 145.109375 192.433594 142.496094 193.816406 C 139.882812 195.203125 137.191406 195.882812 133.507812 195.914062 C 129.8125 195.949219 125.121094 195.335938 120.390625 194.058594 C 115.660156 192.769531 110.894531 190.8125 106.164062 188.785156 C 101.433594 186.761719 96.734375 184.664062 92.195312 183.835938 C 87.644531 183.007812 83.253906 183.449219 79.910156 184.8125 C 76.5625 186.175781 74.273438 188.476562 73.085938 189.742188 C 71.90625 191.011719 71.839844 191.246094 71.808594 190.863281 C 71.773438 190.476562 71.773438 189.464844 72.996094 187.941406 Z M 72.996094 187.941406 " fill-opacity="1" fill-rule="evenodd"/></g></svg>