<svg viewBox="-66.555 -77.846 534.466 570.121" xmlns="http://www.w3.org/2000/svg"><defs><clipPath id="a"><path d="M95.992 88.168h183v66h-183Zm0 0"/></clipPath><clipPath id="b"><path d="M95.992 211.875h183v65.813h-183Zm0 0"/></clipPath><clipPath id="c"><path d="M220.781 181.05h75.75V196h-75.75Zm0 0"/></clipPath><clipPath id="d"><path d="M71.8 181.05h80.25V196H71.8Zm0 0"/></clipPath></defs><path d="M24.831 30.247h450v450h-450z"/><path fill="#fff" d="M24.831 30.247h450v450h-450z"/><rect x="97.923" width="291.932" y="128.891" height="243.204" style="fill:#0a192f" rx="2.971" ry="2.971"/><path d="M221.058 273.944c12.856 0 19.32-6.05 19.32-17.671v-12.516c0-10.176 1.168-16.293 2.614-18.016v-.824h-6.946v.824c1.446 1.723 2.614 7.84 2.614 18.016v12.445c0 8.942-4.883 14.028-11.485 14.028-6.601 0-11.136-5.086-11.136-14.371v-12.102c0-10.176 1.097-16.293 2.613-18.016v-.824h-18.223v.824c1.442 1.723 2.614 7.84 2.614 18.016v12.102c0 10.246 6.945 18.085 18.015 18.085ZM285.756 273.944c10.11 0 13.957-8.87 13.957-15.609 0-7.152-4.262-11.277-9.144-11.277-4.47 0-7.633 3.164-7.633 6.808 0 2.887 1.789 4.95 3.644 5.157l.621-.414c-1.308-3.024 1.098-6.805 4.813-6.805 3.574 0 5.773 2.82 5.773 6.46 0 4.266-3.093 7.774-7.492 7.774-11.965 0-11.898-21.523-21.246-24.41v-.55c3.094-3.923 8.25-11.552 14.23-11.552 3.372 0 5.915 2.063 5.915 5.364 0 2.816-1.649 5.156-4.399 5.156-2.27 0-4.265-2.203-3.578-4.266h-.96c-1.173 3.852 1.718 8.664 7.288 8.664 5.43 0 9.145-4.468 9.145-9.832 0-6.53-4.059-10.59-10.727-10.59-9.488 0-15.402 11.899-17.879 15.954-.48-.274-1.238-.41-1.789-.41-2.265 0-3.367 1.168-3.367 2.816 0 1.516 1.168 2.75 3.094 2.75.894 0 2.199-.688 2.75-1.926l.758.207c.55 2.547-1.172 7.703-.344 14.235 1.031 7.289 5.363 16.296 16.57 16.296Zm-39.95-.894h18.153v-.824c-1.445-1.72-2.543-7.91-2.543-18.016v-10.453c0-10.176 1.098-16.293 2.543-18.016v-.824h-18.152v.824c1.445 1.723 2.613 7.84 2.613 18.016v10.453c0 10.106-1.168 16.297-2.613 18.016Zm0 0" fill="#75e6da"/><g clip-path="url(#a)" transform="translate(62.33 67.747)"><path fill="#75e6da" d="M187.492 88.188c26.649 0 50.77 10.832 68.23 28.343 10.426 10.453 18.477 23.29 23.27 37.625h-1.406a95.47 95.47 0 0 0-22.805-36.68c-17.219-17.269-41.011-27.953-67.289-27.953-26.277 0-50.07 10.684-67.289 27.954a95.516 95.516 0 0 0-22.805 36.68h-1.406c4.797-14.333 12.848-27.169 23.27-37.626 17.46-17.511 41.586-28.344 68.23-28.344Zm0 0" fill-rule="evenodd"/></g><g clip-path="url(#b)" transform="translate(62.33 67.747)"><path fill="#75e6da" d="M187.492 277.668c26.649 0 50.77-10.832 68.23-28.344 10.426-10.453 18.477-23.289 23.27-37.625h-1.406a95.47 95.47 0 0 1-22.805 36.68c-17.219 17.27-41.011 27.953-67.289 27.953-26.277 0-50.07-10.684-67.289-27.953a95.516 95.516 0 0 1-22.805-36.68h-1.406c4.797 14.332 12.848 27.168 23.27 37.625 17.46 17.512 41.586 28.344 68.23 28.344Zm0 0" fill-rule="evenodd"/></g><g clip-path="url(#c)" transform="translate(62.33 67.747)"><path fill="#75e6da" d="M217.816 187.941c1.22-1.523 3.66-3.546 6.465-4.867 2.805-1.324 5.985-1.933 9.555-1.898 3.57.031 7.527.71 12.36 2.199 4.831 1.488 10.534 3.79 15.628 5.715 5.098 1.922 9.598 3.476 13.887 4.023 4.293.543 8.387.067 11.488-1.172 3.098-1.246 5.207-3.254 6.45-4.754 1.246-1.496 1.628-2.476 2.05-3.304.418-.828.871-1.504 1.063-1.453.191.05.125.828-.207 1.914-.332 1.09-.93 2.492-2.496 4.242-1.57 1.75-4.13 3.848-6.743 5.23-2.613 1.387-5.304 2.067-8.988 2.098-3.695.035-8.383-.578-13.117-1.855-4.73-1.29-9.496-3.246-14.227-5.274-4.73-2.023-9.43-4.12-13.968-4.95-4.551-.827-8.942-.386-12.286.977-3.343 1.364-5.636 3.665-6.824 4.93-1.18 1.27-1.242 1.504-1.277 1.121-.031-.386-.031-1.398 1.187-2.922Zm0 0" fill-rule="evenodd"/></g><path d="m207.13 194.475-4.39-6.297 4.124-2.89.39.546-3.515 2.453 1.61 2.313 2.968-2.063.36.516-2.969 2.062 2.031 2.922ZM215.624 189.01l-3.421-6.86 2.906-1.437c.289-.144.594-.218.906-.218.313 0 .61.058.89.171.282.106.536.262.766.47.227.21.41.445.547.702.125.262.207.524.25.782.04.261.035.523-.015.78-.043.25-.125.485-.25.704a1.855 1.855 0 0 1-.5.562l3.015 1.813-.765.375-2.891-1.719-2.031 1.016 1.265 2.531Zm-.89-3.453 2.265-1.125c.188-.094.344-.223.47-.39.124-.176.202-.368.234-.579.039-.207.046-.422.015-.64a2.11 2.11 0 0 0-.172-.64 1.948 1.948 0 0 0-.422-.532 1.67 1.67 0 0 0-.546-.344 1.623 1.623 0 0 0-.625-.125c-.211 0-.407.047-.594.14l-2.188 1.094ZM228.39 183.701a3.288 3.288 0 0 1-1.515.14 3.822 3.822 0 0 1-1.36-.5 4.032 4.032 0 0 1-1.062-.984 4.23 4.23 0 0 1-.672-1.297 3.903 3.903 0 0 1 .172-2.875c.21-.445.484-.835.828-1.171a3.247 3.247 0 0 1 1.266-.735 3.29 3.29 0 0 1 1.515-.11c.5.087.953.259 1.36.516.406.25.757.575 1.062.97.3.386.52.808.656 1.265.157.492.219.984.188 1.484s-.149.977-.344 1.422c-.2.438-.477.824-.828 1.156a3.375 3.375 0 0 1-1.266.72Zm-3.89-2.86c.125.4.312.762.562 1.094.25.336.535.606.86.813.332.2.69.336 1.078.406.382.063.78.031 1.187-.094a2.45 2.45 0 0 0 1.031-.609c.282-.289.493-.617.641-.984a3.32 3.32 0 0 0 .234-1.14 3.6 3.6 0 0 0-.734-2.267 3.142 3.142 0 0 0-.86-.812 2.783 2.783 0 0 0-1.077-.39 2.454 2.454 0 0 0-1.157.093 2.701 2.701 0 0 0-1.062.625c-.281.274-.496.59-.64.953a3.522 3.522 0 0 0-.22 1.14c-.007.407.043.798.157 1.173ZM236.666 175.183l.86 6.203-.75.094-1.063-7.594.578-.078 5.922 5.625-.89-6.328.75-.094 1.062 7.594-.656.094ZM254.324 173.422l-2.735-.046-.125 7-.75-.016.125-7-2.734-.047.016-.672 6.218.11ZM259.263 178.343l.094-.672 3.11.469-.094.672ZM272.49 183.28l-.188.64-4.953-1.422 2.125-7.375 4.844 1.39-.187.641-4.125-1.187-.766 2.672 3.594 1.046-.172.61-3.594-1.047-.812 2.812ZM280.44 180.333l-2.641 5.672-.688-.313 3.235-6.953.531.25 1.906 7.937 2.688-5.796.703.328-3.234 6.953-.61-.281ZM287.784 191.198l4.328-6.328 2.14 1.468c.508.344.899.73 1.172 1.157.27.417.43.855.485 1.312.05.461.007.93-.125 1.406-.125.469-.34.922-.641 1.36-.336.476-.711.859-1.125 1.14-.406.29-.836.485-1.281.578a3.21 3.21 0 0 1-1.39 0 4.171 4.171 0 0 1-1.423-.625Zm6.734-.063a3.98 3.98 0 0 0 .547-1.156c.113-.395.144-.774.094-1.14a2.426 2.426 0 0 0-.391-1.063 3.114 3.114 0 0 0-.89-.89l-1.516-1.048-3.578 5.235 1.515 1.047c.395.269.79.437 1.188.5.394.07.773.062 1.14-.032a2.768 2.768 0 0 0 1.032-.531c.32-.25.609-.559.859-.922ZM203.141 317.558l4.297-6.36 2.156 1.454c.508.344.899.73 1.172 1.156.27.418.43.856.484 1.313.051.46.008.93-.125 1.406a4.631 4.631 0 0 1-.625 1.36c-.324.488-.695.874-1.109 1.156-.406.289-.836.488-1.281.593a3.21 3.21 0 0 1-1.39 0 4.171 4.171 0 0 1-1.423-.625Zm6.734-.093a3.98 3.98 0 0 0 .547-1.157c.114-.394.145-.781.094-1.156a2.315 2.315 0 0 0-.39-1.047 3.285 3.285 0 0 0-.907-.89l-1.531-1.032-3.547 5.235 1.531 1.03c.395.27.785.442 1.172.517.395.07.774.054 1.14-.047a3.09 3.09 0 0 0 1.032-.532c.32-.242.61-.546.86-.921ZM218.87 325.775l-.282.61-4.656-2.204 3.281-6.938 4.563 2.157-.281.61-3.891-1.845-1.188 2.5 3.391 1.61-.266.578-3.39-1.61-1.266 2.641ZM226.705 321.305l.672 7.25 4.562-5.656.766.218-5.281 6.422-.625-.187-.844-8.266ZM241.597 331.755l-.094.672-5.11-.735 1.11-7.593 5 .718-.11.672-4.25-.609-.39 2.734 3.703.532-.093.625-3.703-.532-.422 2.891ZM247.815 332.845l.015-7.672h.75l-.015 7 4.437.016v.672ZM262.101 331.993a3.109 3.109 0 0 1-1.5-.109 3.98 3.98 0 0 1-1.266-.688 3.924 3.924 0 0 1-.906-1.125 4.102 4.102 0 0 1-.469-1.375 4.39 4.39 0 0 1 .047-1.5c.102-.5.29-.945.563-1.343a3.923 3.923 0 0 1 1.015-1.016c.407-.281.86-.457 1.36-.531a3.104 3.104 0 0 1 1.484.11c.477.155.899.39 1.266.702.375.313.676.688.906 1.125.238.438.395.899.469 1.375.082.5.066 1-.047 1.5a3.868 3.868 0 0 1-.563 1.344c-.261.399-.593.73-1 1-.406.274-.859.45-1.359.531Zm-3.39-3.422c.062.407.187.793.374 1.157.196.367.442.68.735.937.289.262.625.453 1 .578.375.118.77.141 1.187.078.426-.062.801-.21 1.125-.453a2.72 2.72 0 0 0 .766-.859c.195-.332.332-.695.406-1.094a3.571 3.571 0 0 0-.375-2.344 2.938 2.938 0 0 0-.734-.921 2.759 2.759 0 0 0-.985-.563 2.451 2.451 0 0 0-1.171-.094c-.43.063-.805.215-1.125.453-.325.23-.586.512-.782.844-.199.336-.336.7-.406 1.094a3.466 3.466 0 0 0-.016 1.187ZM271.849 329.86l-2.313-7.312 3.031-.953c.313-.102.618-.13.922-.079.313.055.598.157.86.313.257.156.488.355.687.594.195.242.336.5.422.78.094.294.129.595.11.907a2.484 2.484 0 0 1-.188.875 2.315 2.315 0 0 1-.5.735c-.219.21-.492.367-.813.468l-2.359.75.86 2.703Zm-.344-3.562 2.344-.75c.218-.063.398-.164.546-.313a1.65 1.65 0 0 0 .329-.515c.07-.188.109-.395.109-.625a1.97 1.97 0 0 0-.094-.672 1.913 1.913 0 0 0-.328-.61 1.608 1.608 0 0 0-.484-.422 1.352 1.352 0 0 0-.578-.203c-.211-.02-.414 0-.61.063l-2.281.719ZM287.119 323.022l.297.61-4.64 2.25-3.344-6.906 4.53-2.204.282.61-3.86 1.875 1.22 2.484 3.374-1.64.282.578-3.375 1.64 1.265 2.625ZM292.888 320.428l-4.328-6.329 2.671-1.828c.282-.187.575-.3.875-.343.301-.04.598-.024.891.046.29.063.566.188.828.375.27.18.488.387.656.625.157.23.27.477.344.735.07.262.102.523.094.781-.012.25-.063.496-.156.734-.086.23-.22.434-.407.61l3.235 1.39-.719.485-3.078-1.313-1.875 1.282 1.594 2.328Zm-1.344-3.313 2.078-1.422c.176-.125.313-.281.406-.469a1.49 1.49 0 0 0 .157-.593c.02-.207 0-.414-.063-.625a2.163 2.163 0 0 0-.281-.61 1.903 1.903 0 0 0-1.078-.734 1.59 1.59 0 0 0-.625-.031 1.357 1.357 0 0 0-.563.218l-2.015 1.375Zm0 0" fill="#75e6da"/><g clip-path="url(#d)" transform="translate(62.33 67.747)"><path fill="#75e6da" d="M72.996 187.941c1.219-1.523 3.66-3.546 6.465-4.867 2.805-1.324 5.984-1.933 9.555-1.898 3.57.031 7.527.71 12.359 2.199 4.832 1.488 10.535 3.79 15.629 5.715 5.098 1.922 9.598 3.476 13.887 4.023 4.293.543 8.382.067 11.488-1.172 3.098-1.246 5.207-3.254 6.45-4.754 1.245-1.496 1.628-2.476 2.05-3.304.414-.828.871-1.504 1.062-1.453.192.05.125.828-.207 1.914-.332 1.09-.93 2.492-2.5 4.242-1.566 1.75-4.125 3.848-6.738 5.23-2.613 1.387-5.305 2.067-8.988 2.098-3.696.035-8.387-.578-13.117-1.855-4.73-1.29-9.496-3.246-14.227-5.274-4.73-2.023-9.43-4.12-13.969-4.95-4.55-.827-8.941-.386-12.285.977-3.347 1.364-5.637 3.665-6.824 4.93-1.18 1.27-1.246 1.504-1.277 1.121-.036-.386-.036-1.398 1.187-2.922Zm0 0" fill-rule="evenodd"/></g></svg>